<?xml version="1.0" standalone="no"?><!DOCTYPE svg PUBLIC "-//W3C//DTD SVG 1.1//EN" "http://www.w3.org/Graphics/SVG/1.1/DTD/svg11.dtd"><svg t="1669445281675" class="icon" viewBox="0 0 1024 1024" version="1.1" xmlns="http://www.w3.org/2000/svg" p-id="22905" xmlns:xlink="http://www.w3.org/1999/xlink" width="200" height="200"><path d="M0 0m125.582536 0l772.834928 0q125.582536 0 125.582536 125.582536l0 772.834928q0 125.582536-125.582536 125.582536l-772.834928 0q-125.582536 0-125.582536-125.582536l0-772.834928q0-125.582536 125.582536-125.582536Z" fill="#26BFA6" p-id="22906"></path><path d="M137.010547 229.062546m41.818985 0l666.215354 0q41.818985 0 41.818984 41.818985l0 207.336767q0 41.818985-41.818984 41.818984l-666.215354 0q-41.818985 0-41.818985-41.818984l0-207.336767q0-41.818985 41.818985-41.818985Z" fill="#214471" p-id="22907"></path><path d="M239.109149 277.035075h32.525877v32.525877h-32.525877z" fill="#4A7AB8" p-id="22908"></path><path d="M186.992396 342.086829m19.339711 0l611.210204 0q19.339711 0 19.33971 19.33971l0 26.24675q0 19.339711-19.33971 19.339711l-611.210204 0q-19.339711 0-19.339711-19.339711l0-26.24675q0-19.339711 19.339711-19.33971Z" fill="#172F4E" p-id="22909"></path><path d="M222.783419 366.324258h582.451803V794.937454H222.783419z" fill="#BDCDD1" p-id="22910"></path><path d="M253.299975 407.013m30.767722 0l459.883247 0q30.767721 0 30.767722 30.767721l0 293.737552q0 30.767721-30.767722 30.767722l-459.883247 0q-30.767721 0-30.767722-30.767722l0-293.737552q0-30.767721 30.767722-30.767721Z" fill="#FFFFFF" p-id="22911"></path><path d="M303.784155 471.311258H448.329654v16.32573H303.784155zM303.784155 520.037282h420.324749v16.32573H303.784155zM303.784155 568.637724h420.324749v16.32573H303.784155zM303.784155 617.363748h420.324749v16.32573H303.784155zM303.784155 665.461859h241.369635v16.32573H303.784155zM464.780966 471.311258h64.549424v16.32573h-64.549424z" fill="#DDDDDD" p-id="22912"></path></svg>