<?xml version="1.0" standalone="no"?><!DOCTYPE svg PUBLIC "-//W3C//DTD SVG 1.1//EN" "http://www.w3.org/Graphics/SVG/1.1/DTD/svg11.dtd"><svg t="1669445515658" class="icon" viewBox="0 0 1024 1024" version="1.1" xmlns="http://www.w3.org/2000/svg" p-id="23305" xmlns:xlink="http://www.w3.org/1999/xlink" width="200" height="200"><path d="M508.7 176.7c40.2 0 79.2 7.9 115.9 23.4 35.4 15 67.3 36.5 94.7 63.8 27.4 27.4 48.8 59.2 63.8 94.7 15.5 36.7 23.4 75.6 23.4 115.9s-7.9 79.2-23.4 115.9c-15 35.4-36.5 67.3-63.8 94.7-27.4 27.4-59.2 48.8-94.7 63.8-36.7 15.5-75.6 23.4-115.9 23.4s-79.2-7.9-115.9-23.4c-35.4-15-67.3-36.5-94.7-63.8-27.4-27.4-48.8-59.2-63.8-94.7-15.5-36.7-23.4-75.6-23.4-115.9s7.9-79.2 23.4-115.9c15-35.4 36.5-67.3 63.8-94.7 27.4-27.4 59.2-48.8 94.7-63.8 36.7-15.5 75.7-23.4 115.9-23.4m0-64c-199.8 0-361.7 162-361.7 361.7s162 361.7 361.7 361.7 361.7-162 361.7-361.7-161.9-361.7-361.7-361.7z" p-id="23306"></path><path d="M508.7 762m-148.5 0a148.5 148.5 0 1 0 297 0 148.5 148.5 0 1 0-297 0Z" p-id="23307"></path><path d="M508.7 614c39.5 0 76.7 15.4 104.7 43.4s43.4 65.1 43.4 104.7-15.4 76.7-43.4 104.7S548.2 910 508.7 910 432 894.6 404 866.7c-28-28-43.4-65.1-43.4-104.7S376 685.3 404 657.3c28-27.9 65.1-43.3 104.7-43.3m0-1c-82.3 0-149 66.7-149 149s66.7 149 149 149 149-66.7 149-149-66.7-149-149-149z" p-id="23308"></path><path d="M684.924012 444.925544a159.1 159.1 0 1 0 224.997451-225.005305 159.1 159.1 0 1 0-224.997451 225.005305Z" p-id="23309"></path><path d="M797.4 173.8c42.4 0 82.2 16.5 112.1 46.4 30 30 46.5 69.8 46.5 112.2s-16.5 82.2-46.4 112.1c-29.9 29.9-69.8 46.4-112.1 46.4s-82.2-16.5-112.1-46.4c-29.9-29.9-46.4-69.8-46.4-112.1s16.5-82.2 46.4-112.1c29.9-30 69.7-46.5 112-46.5m0-1c-88.1 0-159.6 71.4-159.6 159.6S709.2 492 797.4 492 957 420.5 957 332.4s-71.4-159.6-159.6-159.6z" p-id="23310"></path><path d="M227.3 332.4m-159.1 0a159.1 159.1 0 1 0 318.2 0 159.1 159.1 0 1 0-318.2 0Z" p-id="23311"></path><path d="M227.3 173.8c42.4 0 82.2 16.5 112.1 46.4 29.9 29.9 46.4 69.8 46.4 112.1s-16.5 82.2-46.4 112.1c-29.9 29.9-69.8 46.4-112.1 46.4s-82.2-16.5-112.1-46.4c-29.9-29.9-46.4-69.8-46.4-112.1s16.5-82.2 46.4-112.1c29.9-29.9 69.7-46.4 112.1-46.4m0-1c-88.1 0-159.6 71.4-159.6 159.6S139.1 492 227.3 492s159.6-71.4 159.6-159.6-71.5-159.6-159.6-159.6z" p-id="23312"></path></svg>