<?xml version="1.0" standalone="no"?><!DOCTYPE svg PUBLIC "-//W3C//DTD SVG 1.1//EN" "http://www.w3.org/Graphics/SVG/1.1/DTD/svg11.dtd"><svg t="1669444321216" class="icon" viewBox="0 0 1024 1024" version="1.1" xmlns="http://www.w3.org/2000/svg" p-id="16923" xmlns:xlink="http://www.w3.org/1999/xlink" width="200" height="200"><path d="M554.666667 512v170.666667a42.666667 42.666667 0 1 1-85.333334 0v-170.666667a42.666667 42.666667 0 1 1 85.333334 0zM512 768a42.666667 42.666667 0 1 1 0 85.333333 42.666667 42.666667 0 0 1 0-85.333333z" p-id="16924"></path><path d="M960 0A64 64 0 0 1 1024 64v213.333333A64 64 0 0 1 960 341.333333H938.666667v617.258667c0 33.536-25.002667 62.08-58.069334 65.152L874.666667 1024h-725.333334c-34.005333 0-60.842667-26.666667-63.744-59.562667L85.333333 958.592V341.333333h-21.333333A64 64 0 0 1 0.298667 283.477333L0 277.333333v-213.333333A64 64 0 0 1 64 0zM853.333333 341.333333H170.666667v597.333334h682.666666V341.333333z m85.333334-256H85.333333v170.666667h853.333334V85.333333z" p-id="16925"></path></svg>