<?xml version="1.0" standalone="no"?><!DOCTYPE svg PUBLIC "-//W3C//DTD SVG 1.1//EN" "http://www.w3.org/Graphics/SVG/1.1/DTD/svg11.dtd"><svg t="1669444838251" class="icon" viewBox="0 0 1024 1024" version="1.1" xmlns="http://www.w3.org/2000/svg" p-id="20515" xmlns:xlink="http://www.w3.org/1999/xlink" width="200" height="200"><path d="M549.8 174.1l-32.2 216.7-10.8 65.2H864L474.2 849.9l32.2-216.7 10.9-65.2H160l389.8-393.9M591.9 64c-6.8 0-13.7 2.5-19.4 8.2L72.2 576.6C54.7 594.1 67.1 624 91.8 624h359.3l-46.7 303.6c-3.1 18.7 11.8 32.4 27.6 32.4 6.8 0 13.7-2.5 19.4-8.2l500.4-504.4c17.5-17.5 5.1-47.4-19.6-47.4H572.9l46.7-303.6c3.1-18.6-11.9-32.4-27.7-32.4z" p-id="20516"></path></svg>