<?xml version="1.0" standalone="no"?><!DOCTYPE svg PUBLIC "-//W3C//DTD SVG 1.1//EN" "http://www.w3.org/Graphics/SVG/1.1/DTD/svg11.dtd"><svg t="1669444965549" class="icon" viewBox="0 0 1024 1024" version="1.1" xmlns="http://www.w3.org/2000/svg" p-id="20714" xmlns:xlink="http://www.w3.org/1999/xlink" width="200" height="200"><path d="M725.815893 53.546667c10.666667 0 20.906667 4.053333 28.586667 11.306666l3.626667 3.84 256.213333 308.266667c11.946667 14.506667 12.8 35.2 2.133333 50.773333l-3.2 4.053334-469.973333 523.733333-3.2 3.2c-15.786667 14.08-39.466667 14.293333-55.466667 0.426667l-3.84-3.626667L10.72256 431.573333c-12.586667-14.08-14.293333-34.773333-4.053333-50.56l2.986666-4.266666L265.869227 68.693333c6.826667-8.106667 16.426667-13.44 26.88-14.72l5.333333-0.426666h427.733333z m-10.026666 62.72H307.895893L69.60256 403.2 511.84256 896l442.24-492.8L715.789227 116.266667z m0 0" fill="#707070" p-id="20715"></path><path d="M304.695893 362.88c8.32 0 16.426667 3.413333 22.4 9.386667l2.773334 3.2 181.333333 241.493333 172.16-240.853333c5.12-7.04 12.8-11.733333 21.333333-12.8l4.266667-0.426667h70.826667c16.64-0.213333 30.506667 12.586667 31.573333 29.226667 1.066667 16.64-10.88 31.146667-27.306667 33.28l-4.266666 0.213333h-54.613334L537.655893 688.213333a31.530667 31.530667 0 0 1-47.573333 4.266667l-3.2-3.626667-197.76-263.253333h-53.12c-15.786667 0-29.013333-11.52-31.146667-27.093333l-0.213333-4.266667c0-15.786667 11.52-29.013333 27.093333-31.146667l4.266667-0.213333h68.693333z m0 0" fill="#707070" p-id="20716"></path></svg>