<?xml version="1.0" standalone="no"?><!DOCTYPE svg PUBLIC "-//W3C//DTD SVG 1.1//EN" "http://www.w3.org/Graphics/SVG/1.1/DTD/svg11.dtd"><svg t="1669444525050" class="icon" viewBox="0 0 1024 1024" version="1.1" xmlns="http://www.w3.org/2000/svg" p-id="18819" xmlns:xlink="http://www.w3.org/1999/xlink" width="200" height="200"><path d="M858.627199 241.024501c-4.493745-4.381751-10.407408-6.901608-16.650054-6.901608H659.808499V64.991506c0-6.133651-2.519857-12.156309-6.901608-16.53806-4.379751-4.384751-10.294415-6.901608-16.53606-6.901608H93.154705c-12.927265 0-23.442668 10.511403-23.442667 23.438668v934.827868c0 6.133651 2.519857 12.155309 6.900608 16.536061 4.381751 4.381751 10.296415 6.901608 16.542059 6.901607h748.82244c6.242645 0 12.156309-2.406863 16.650054-6.901607 4.381751-4.380751 6.900608-10.295415 6.900608-16.536061V257.563561c0-6.130652-2.518857-12.157309-6.900608-16.53906z m0 0" fill="#21b8ff" p-id="18820"></path><path d="M926.70933 193.996174c-4.367752-4.258758-10.117425-6.708619-16.18708-6.708619H733.430315V22.8679c0-5.963661-2.448861-11.817328-6.709619-16.077086C722.462938 2.528056 716.713265 0.082195 710.64561 0.082195h-528.079986c-12.567286 0-22.789705 10.218419-22.789705 22.785705v908.781349c0 5.962661 2.448861 11.816328 6.707619 16.075086 4.259758 4.259758 10.009431 6.709619 16.082086 6.709619h727.957626c6.068655 0 11.818328-2.339867 16.18708-6.709619 4.259758-4.258758 6.708619-10.008431 6.708618-16.075086V210.07426c-0.001-5.959661-2.450861-11.818328-6.709618-16.078086z m0 0" fill="#b6eaff" p-id="18821"></path><path d="M926.069366 193.463204L726.192726 6.15085c-9.270473-8.62751-23.641656-8.09354-32.269166 1.06394-8.62451 9.159479-8.09454 23.641656 1.06494 32.266166l-7.240589-17.573001 2.024885 209.042119 226.289139 2.128879-21.086802-6.178649c4.153764 3.938776 9.799443 6.178649 15.547117 6.178649a22.760706 22.760706 0 0 0 21.191795-14.482177c3.408806-8.733504 1.170933-18.744935-5.644679-25.133572z m0 0" fill="#F2F1F9" p-id="18822"></path><path d="M580.028034 496.889959H494.771879V381.190535h57.851712l27.404443 27.403442v88.295982z m0 0" fill="#91C3EA" p-id="18823"></path><path d="M575.455293 411.638804h-25.877529V385.756275l25.877529 25.882529z m0 0" fill="#E0F2FA" p-id="18824"></path><path d="M789.129149 747.819697l44.577467-44.573467 190.980145 191.025143-44.573467 44.578467-190.984145-191.030143z m0 0" fill="#ffffff" p-id="18825"></path><path d="M395.023548 554.654676c-0.004 88.480971 47.196318 170.243324 123.821963 214.481809 76.629645 44.242485 171.036279 44.242485 247.661924 0 76.624645-44.238486 123.825962-126.000839 123.819962-214.481809 0.006-88.480971-47.195318-170.243324-123.819962-214.48781-76.625645-44.238486-171.032279-44.238486-247.661924 0-76.624645 44.244485-123.825962 126.006838-123.821963 214.48781z m0 0" fill="#ffffff" p-id="18826"></path><path d="M440.056989 554.654676c0 111.90764 90.712844 202.619484 202.619484 202.619484S845.301956 666.562315 845.301956 554.654676s-90.718844-202.625484-202.625483-202.625484-202.619484 90.717844-202.619484 202.625484z m0 0" fill="#A9D6F3" p-id="18827"></path><path d="M841.90015 799.601754l44.577466-44.573467 138.461131 138.48113-44.578467 44.571466-138.46013-138.479129z m0 0" fill="#36474F" p-id="18828"></path><path d="M687.701914 599.683116H469.320326c9.007488 36.021953 29.269336 67.538161 56.285801 90.050882h162.095787v-90.050882z m-218.381588-90.054881h218.382588v-90.058882H523.355255c-27.018464 22.51872-45.028441 54.032929-54.034929 90.058882z m-4.497745-157.599043h-204.878355v45.027441h164.348659c11.25936-15.758104 24.764592-31.516209 40.529696-45.027441z m-67.547161 90.058882H259.944226v45.02744H381.518316c4.503744-15.765104 9.007488-31.521208 15.757104-45.02744z m-24.764592 112.566602c0-6.756616 0-15.757104 2.251872-22.514721H259.944226v45.027441h114.818474c-2.251872-6.754616-2.251872-15.757104-2.251872-22.51272z m9.007488 67.540161H259.944226v45.026441h137.331194c-6.749616-13.506232-11.25336-29.269336-15.757104-45.026441z m0 0" fill="#3E93D1" p-id="18829"></path></svg>