<?xml version="1.0" standalone="no"?><!DOCTYPE svg PUBLIC "-//W3C//DTD SVG 1.1//EN" "http://www.w3.org/Graphics/SVG/1.1/DTD/svg11.dtd"><svg t="1669444740082" class="icon" viewBox="0 0 1024 1024" version="1.1" xmlns="http://www.w3.org/2000/svg" p-id="20269" xmlns:xlink="http://www.w3.org/1999/xlink" width="200" height="200"><path d="M190.577778 270.791111l70.542222 505.742222A22.755556 22.755556 0 0 0 284.444444 796.444444h602.453334a22.755556 22.755556 0 0 0 0-45.511111H303.217778L232.675556 244.622222A22.186667 22.186667 0 0 0 210.488889 227.555556H77.937778a22.755556 22.755556 0 1 0 0 45.511111z" p-id="20270"></path><path d="M312.32 876.657778m-47.786667 0a47.786667 47.786667 0 1 0 95.573334 0 47.786667 47.786667 0 1 0-95.573334 0Z" p-id="20271"></path><path d="M848.782222 876.657778m-47.786666 0a47.786667 47.786667 0 1 0 95.573333 0 47.786667 47.786667 0 1 0-95.573333 0Z" p-id="20272"></path><path d="M886.897778 731.591111a22.755556 22.755556 0 0 0 22.755555-22.755555v-227.555556a22.755556 22.755556 0 0 0-22.755555-22.755556H417.564444a22.755556 22.755556 0 0 0-22.755555 22.755556v227.555556a22.755556 22.755556 0 0 0 45.511111 0V505.173333h423.822222v203.662223a22.755556 22.755556 0 0 0 22.755556 22.755555zM645.12 433.493333a22.186667 22.186667 0 0 0 22.755556-22.755555V288.426667h196.266666v122.311111a22.755556 22.755556 0 1 0 45.511111 0V265.671111a22.755556 22.755556 0 0 0-22.755555-22.755555h-241.777778a22.755556 22.755556 0 0 0-22.755556 22.755555v145.066667a22.186667 22.186667 0 0 0 22.755556 22.755555zM296.391111 433.493333a22.186667 22.186667 0 0 0 22.755556-22.755555v-227.555556h196.266666v227.555556a22.755556 22.755556 0 0 0 45.511111 0V162.133333a22.755556 22.755556 0 0 0-22.755555-22.755555H296.391111a22.755556 22.755556 0 0 0-22.755555 22.755555v248.604445a22.186667 22.186667 0 0 0 22.755555 22.755555z" p-id="20273"></path></svg>