<?xml version="1.0" standalone="no"?><!DOCTYPE svg PUBLIC "-//W3C//DTD SVG 1.1//EN" "http://www.w3.org/Graphics/SVG/1.1/DTD/svg11.dtd"><svg t="1669445415314" class="icon" viewBox="0 0 1024 1024" version="1.1" xmlns="http://www.w3.org/2000/svg" p-id="23144" xmlns:xlink="http://www.w3.org/1999/xlink" width="200" height="200"><path d="M960 320V192h-128v64L570.88 128A94.72 94.72 0 0 0 576 96a96 96 0 0 0-192 0 94.72 94.72 0 0 0 5.12 32L128 256V192H0v128h64v384H0v128h128v-64l261.12 128a94.72 94.72 0 0 0-5.12 32 96 96 0 0 0 192 0 94.72 94.72 0 0 0-5.12-32L832 768v64h128v-128h-64V320zM480 64a32 32 0 1 1-32 32 32 32 0 0 1 32-32z m0 896a32 32 0 1 1 32-32 32 32 0 0 1-32 32zM832 320v384l-295.04 147.2a95.36 95.36 0 0 0-24.96-13.44V640H448v197.76a95.36 95.36 0 0 0-24.96 13.44L128 704V320l192 128V384L183.04 292.48 423.04 172.8a94.72 94.72 0 0 0 113.92 0l240 119.68L640 384v64l192-128zM480 384A96 96 0 1 0 576 480 96 96 0 0 0 480 384z m0 128a32 32 0 1 1 32-32 32 32 0 0 1-32 32z" fill="#666666" p-id="23145"></path></svg>