<?xml version="1.0" standalone="no"?><!DOCTYPE svg PUBLIC "-//W3C//DTD SVG 1.1//EN" "http://www.w3.org/Graphics/SVG/1.1/DTD/svg11.dtd"><svg t="1669442750795" class="icon" viewBox="0 0 1024 1024" version="1.1" xmlns="http://www.w3.org/2000/svg" p-id="14032" xmlns:xlink="http://www.w3.org/1999/xlink" width="200" height="200"><path d="M548.48 926.85H169.87c-33.08 0-60-25.54-60-56.92v-715.6c0-31.38 26.91-56.92 60-56.92H685c33.07 0 59.99 25.54 59.99 56.92v356.08c0 13.47-10.92 24.4-24.4 24.4-13.48 0-24.4-10.93-24.4-24.4V154.33c0-3.84-4.6-8.13-11.2-8.13H169.87c-6.61 0-11.21 4.29-11.21 8.13v715.6c0 3.84 4.6 8.13 11.21 8.13h378.61c13.48 0 24.4 10.93 24.4 24.4 0 13.46-10.92 24.39-24.4 24.39zM727.36 926.85c-13.48 0-24.4-10.93-24.4-24.4v-44.88c0-13.47 10.92-24.4 24.4-24.4s24.4 10.93 24.4 24.4v44.88c0 13.47-10.92 24.4-24.4 24.4z" p-id="14033"></path><path d="M727.36 632.81c-13.48 0-24.4-10.93-24.4-24.4v-29.73c0-13.47 10.92-24.4 24.4-24.4s24.4 10.93 24.4 24.4v29.73c0 13.47-10.92 24.4-24.4 24.4zM601.55 764.96h-36.08c-13.48 0-24.4-10.93-24.4-24.4 0-13.47 10.92-24.4 24.4-24.4h36.08c13.48 0 24.4 10.93 24.4 24.4 0 13.48-10.92 24.4-24.4 24.4zM889.93 764.96h-43.38c-13.48 0-24.4-10.93-24.4-24.4 0-13.47 10.92-24.4 24.4-24.4h43.38c13.48 0 24.4 10.93 24.4 24.4-0.01 13.48-10.93 24.4-24.4 24.4zM841.84 879.44c-6.25 0-12.5-2.38-17.26-7.16l-26.99-27c-9.53-9.51-9.53-24.97-0.01-34.5 9.53-9.53 24.98-9.53 34.5 0l27.02 27.03c9.52 9.53 9.51 24.98-0.02 34.5a24.37 24.37 0 0 1-17.24 7.13zM643.02 680.61c-6.24 0-12.48-2.38-17.25-7.15l-30.12-30.11c-9.54-9.51-9.54-24.97-0.02-34.5 9.53-9.53 24.98-9.53 34.5 0l30.14 30.11c9.53 9.51 9.53 24.97 0.01 34.5a24.336 24.336 0 0 1-17.26 7.15zM612.89 879.44c-6.24 0-12.48-2.38-17.25-7.15-9.53-9.53-9.53-24.97 0-34.5l33.54-33.56c9.53-9.53 24.98-9.53 34.5 0 9.53 9.51 9.53 24.97 0.01 34.5l-33.56 33.56c-4.75 4.77-11 7.15-17.24 7.15zM808.91 683.42c-6.24 0-12.48-2.38-17.25-7.15-9.53-9.51-9.53-24.97-0.01-34.5l32.93-32.92c9.54-9.55 24.98-9.51 34.5 0 9.52 9.53 9.52 24.98-0.01 34.5l-32.92 32.92c-4.75 4.77-11 7.15-17.24 7.15z" p-id="14034"></path><path d="M727.36 877.44c-75.46 0-136.87-61.4-136.87-136.87 0-75.46 61.4-136.86 136.87-136.86s136.87 61.4 136.87 136.86c0 75.47-61.4 136.87-136.87 136.87z m0-224.94c-48.57 0-88.08 39.5-88.08 88.07 0 48.57 39.51 88.08 88.08 88.08s88.08-39.52 88.08-88.08c0-48.57-39.51-88.07-88.08-88.07z" p-id="14035"></path><path d="M727.36 877.44c-75.46 0-136.87-61.4-136.87-136.87 0-75.46 61.4-136.86 136.87-136.86s136.87 61.4 136.87 136.86c0 75.47-61.4 136.87-136.87 136.87z m0-224.94c-48.57 0-88.08 39.5-88.08 88.07 0 48.57 39.51 88.08 88.08 88.08s88.08-39.52 88.08-88.08c0-48.57-39.51-88.07-88.08-88.07zM456.48 323.43H249.13c-13.48 0-24.4-10.93-24.4-24.4s10.92-24.4 24.4-24.4h207.35c13.48 0 24.4 10.93 24.4 24.4s-10.92 24.4-24.4 24.4zM333.2 591.54h-84.07c-13.48 0-24.4-10.93-24.4-24.4 0-13.47 10.92-24.4 24.4-24.4h84.07c13.48 0 24.4 10.93 24.4 24.4-0.01 13.48-10.93 24.4-24.4 24.4zM514.96 457.48H249.13c-13.48 0-24.4-10.93-24.4-24.4s10.92-24.4 24.4-24.4h265.83c13.48 0 24.4 10.93 24.4 24.4s-10.92 24.4-24.4 24.4z" p-id="14036"></path></svg>